#N canvas 740 132 1301 761 10;
#X obj 21 6 nbx 5 20 0 127 0 0 empty empty empty 0 -8 0 10 -262144
-1 -1 77 256;
#X obj 85 6 nbx 5 20 0 127 0 0 empty empty empty 0 -8 0 10 -262144
-1 -1 75 256;
#X obj 150 7 nbx 5 20 0 127 0 0 empty empty empty 0 -8 0 10 -262144
-1 -1 23 256;
#X obj 216 7 nbx 5 20 0 127 0 0 empty empty empty 0 -8 0 10 -262144
-1 -1 84 256;
#X obj 285 9 nbx 5 20 0 127 0 0 empty empty empty 0 -8 0 10 -262144
-1 -1 0 256;
#X obj 356 9 nbx 5 20 0 127 0 0 empty empty empty 0 -8 0 10 -262144
-1 -1 0 256;
#X obj 483 200 bng 30 250 50 0 empty empty empty 17 7 0 10 -262144
-1 -1;
#X floatatom 494 300 5 0 0 0 - - -, f 5;
#X msg 547 280 127;
#X obj 491 330 noteout;
#X msg 583 281 1;
#X obj 380 339 midiout;
#X obj 419 250 loadbang;
#X floatatom 419 306 5 0 0 0 - - -, f 5;
#X msg 419 270 1;
#X msg 112 -93 1;
#X msg 86 -94 28;
#X msg 445 133 1;
#X msg 500 133 0;
#X obj 483 171 metro 1234;
#X obj 86 -121 bng 15 250 50 0 empty empty empty 17 7 0 10 -262144
-1 -1;
#X obj 107 -119 ctlout, f 9;
#X msg 158 -155 1;
#X obj 132 -182 bng 15 250 50 0 empty empty empty 17 7 0 10 -262144
-1 -1;
#X obj 160 -58 ctlout, f 9;
#X msg 211 -94 1;
#X obj 185 -121 bng 15 250 50 0 empty empty empty 17 7 0 10 -262144
-1 -1;
#X obj 207 -120 ctlout, f 9;
#X msg 258 -155 1;
#X obj 232 -183 bng 15 250 50 0 empty empty empty 17 7 0 10 -262144
-1 -1;
#X msg 133 -155 29;
#X msg 186 -94 30;
#X msg 232 -156 31;
#X obj 255 -59 ctlout, f 9;
#X msg 306 -94 1;
#X obj 280 -122 bng 15 250 50 0 empty empty empty 17 7 0 10 -262144
-1 -1;
#X obj 302 -120 ctlout, f 9;
#X msg 353 -156 1;
#X obj 327 -183 bng 15 250 50 0 empty empty empty 17 7 0 10 -262144
-1 -1;
#X msg 281 -95 32;
#X msg 327 -156 33;
#X obj 61 -58 ctlout;
#X connect 0 0 20 0;
#X connect 0 0 41 0;
#X connect 1 0 23 0;
#X connect 1 0 21 0;
#X connect 2 0 26 0;
#X connect 2 0 24 0;
#X connect 3 0 29 0;
#X connect 3 0 27 0;
#X connect 4 0 35 0;
#X connect 4 0 33 0;
#X connect 5 0 38 0;
#X connect 5 0 36 0;
#X connect 6 0 8 0;
#X connect 6 0 10 0;
#X connect 6 0 7 0;
#X connect 7 0 9 0;
#X connect 8 0 9 1;
#X connect 10 0 9 2;
#X connect 12 0 14 0;
#X connect 13 0 11 1;
#X connect 14 0 13 0;
#X connect 15 0 41 2;
#X connect 16 0 41 1;
#X connect 17 0 19 0;
#X connect 18 0 19 0;
#X connect 19 0 6 0;
#X connect 20 0 16 0;
#X connect 20 0 15 0;
#X connect 22 0 21 2;
#X connect 23 0 30 0;
#X connect 23 0 22 0;
#X connect 25 0 24 2;
#X connect 26 0 31 0;
#X connect 26 0 25 0;
#X connect 28 0 27 2;
#X connect 29 0 32 0;
#X connect 29 0 28 0;
#X connect 30 0 21 1;
#X connect 31 0 24 1;
#X connect 32 0 27 1;
#X connect 34 0 33 2;
#X connect 35 0 39 0;
#X connect 35 0 34 0;
#X connect 37 0 36 2;
#X connect 38 0 40 0;
#X connect 38 0 37 0;
#X connect 39 0 33 1;
#X connect 40 0 36 1;
