#N canvas 181 59 1125 692 10;
#X floatatom 288 450 5 0 0 0 - - -;
#X obj 288 472 osc~;
#X obj 288 542 dac~;
#X msg 338 465 \; pd dsp 1 \;;
#X msg 338 425 \; pd dsp 0 \;;
#X obj 288 503 *~;
#X floatatom 478 247 5 0 0 0 - - -;
#X floatatom 523 247 5 0 0 0 - - -;
#X obj 478 101 bng 15 250 50 0 empty empty empty 17 7 0 10 -262144
-1 -1;
#X obj 478 277 pack 0 0;
#X obj 603 350 pack 0 0;
#X floatatom 603 320 5 0 0 0 - - -;
#X obj 603 295 delay;
#X floatatom 648 320 5 0 0 0 - - -;
#X obj 821 404 pack 0 0;
#X floatatom 821 374 5 0 0 0 - - -;
#X floatatom 866 374 5 0 0 0 - - -;
#X obj 283 43 notein;
#X floatatom 283 121 5 0 0 0 - - -;
#X floatatom 299 100 5 0 0 0 - - -;
#X floatatom 316 81 5 0 0 0 - - -;
#X msg 288 425 440;
#N canvas 0 22 450 278 (subpatch) 0;
#X array output 100 float 3;
#A 0 0 0 0 0 0 0 0 0 0 0 0 0 0 0 0 0 0 0 0 0 0 0 0 0 0 0 0 0 0 0 0
0 0 0 0 0 0 0 0 0 0 0 0 0 0 0 0 0 0 0 0 0 0 0 0 0 0 0 0 0 0 0 0 0 0
0 0 0 0 0 0 0 0 0 0 0 0 0 0 0 0 0 0 0 0 0 0 0 0 0 0 0 0 0 0 0 0 0 0
0;
#X coords 0 1 100 -1 200 140 1;
#X restore 107 204 graph;
#X obj 185 524 tabwrite~ output;
#X obj 185 484 metro 100;
#X msg 396 401 0 200;
#X obj 480 464 line~;
#X obj 379 113 select 0;
#X floatatom 424 138 5 0 0 0 - - -;
#X obj 379 149 bng 15 250 50 0 empty empty empty 17 7 0 10 -262144
-1 -1;
#X text 513 87 attack rate;
#X text 645 88 decay rate;
#X text 842 94 release rate;
#X msg 523 103 set 1000;
#X msg 529 132 set 10;
#X msg 534 163 set 300;
#X msg 648 103 set 1000;
#X msg 654 132 set 2000;
#X msg 659 163 set 3000;
#X msg 867 111 set 1000;
#X msg 873 140 set 2000;
#X msg 878 171 set 5000;
#X msg 395 233 set 0;
#X msg 395 256 set 50;
#X msg 395 307 set 50;
#X msg 396 330 set 0;
#X msg 396 358 set 0;
#X text 281 27 midi in;
#X text 206 120 note number;
#X text 206 100 note velocity;
#X text 207 82 midi channel;
#X msg 602 264 stop;
#X msg 185 449 1;
#X msg 221 449 0;
#X obj 221 422 delay;
#X obj 248 396 + 100;
#X obj 480 488 /~ 127;
#X msg 395 209 set 127;
#X msg 395 284 set 127;
#X floatatom 947 628 5 0 0 0 - - -;
#X floatatom 973 502 5 0 0 0 - - -;
#X obj 982 458 bng 15 250 50 0 empty empty empty 17 7 0 10 -262144
-1 -1;
#X obj 924 574 pack s f;
#X msg 878 504 symbol set;
#X obj 894 637 print;
#X obj 794 544 set;
#X obj 522 614 pack s 0 0;
#X connect 0 0 1 0;
#X connect 1 0 5 0;
#X connect 5 0 2 0;
#X connect 5 0 2 1;
#X connect 5 0 23 0;
#X connect 6 0 9 0;
#X connect 7 0 9 1;
#X connect 7 0 12 1;
#X connect 8 0 6 0;
#X connect 8 0 7 0;
#X connect 8 0 12 0;
#X connect 8 0 52 0;
#X connect 9 0 26 0;
#X connect 10 0 26 0;
#X connect 11 0 10 0;
#X connect 12 0 11 0;
#X connect 12 0 13 0;
#X connect 13 0 10 1;
#X connect 14 0 26 0;
#X connect 15 0 14 0;
#X connect 16 0 14 1;
#X connect 16 0 55 0;
#X connect 17 0 18 0;
#X connect 17 1 19 0;
#X connect 17 2 20 0;
#X connect 19 0 27 0;
#X connect 21 0 0 0;
#X connect 24 0 23 0;
#X connect 25 0 26 0;
#X connect 26 0 56 0;
#X connect 27 0 29 0;
#X connect 27 1 28 0;
#X connect 27 1 8 0;
#X connect 28 0 6 0;
#X connect 29 0 15 0;
#X connect 29 0 16 0;
#X connect 29 0 51 0;
#X connect 29 0 54 0;
#X connect 33 0 7 0;
#X connect 34 0 7 0;
#X connect 35 0 7 0;
#X connect 36 0 13 0;
#X connect 37 0 13 0;
#X connect 38 0 13 0;
#X connect 39 0 16 0;
#X connect 40 0 16 0;
#X connect 41 0 16 0;
#X connect 42 0 6 0;
#X connect 43 0 6 0;
#X connect 44 0 11 0;
#X connect 45 0 11 0;
#X connect 46 0 15 0;
#X connect 51 0 12 0;
#X connect 52 0 24 0;
#X connect 53 0 24 0;
#X connect 54 0 53 0;
#X connect 55 0 54 1;
#X connect 56 0 5 1;
#X connect 57 0 6 0;
#X connect 58 0 11 0;
#X connect 60 0 62 1;
#X connect 61 0 60 0;
#X connect 61 0 63 0;
#X connect 62 0 59 0;
#X connect 62 0 64 0;
#X connect 63 0 62 0;
