#N canvas 138 913 1090 584 10;
#X obj 300 185 vline~;
#X obj 133 47 bng 15 250 50 0 empty empty empty 17 7 0 10 -262144 -1
-1;
#X floatatom 231 55 5 0 0 0 - - -, f 5;
#X floatatom 265 55 5 0 0 0 - - -, f 5;
#X floatatom 312 55 5 0 0 0 - - -, f 5;
#X floatatom 346 55 5 0 0 0 - - -, f 5;
#X floatatom 427 55 5 0 0 0 - - -, f 5;
#X floatatom 461 55 5 0 0 0 - - -, f 5;
#X obj 220 110 pack s 1 20;
#X obj 416 110 pack s 0 1000 300;
#X obj 301 110 pack s 0.7 300 20;
#X msg 300 143 \$2 \$3 \$4;
#X msg 416 143 \$2 \$3 \$4;
#X obj 300 228 outlet~;
#X obj 225 15 inlet;
#X obj 265 15 inlet;
#X obj 305 15 inlet;
#X obj 345 15 inlet;
#X obj 385 15 inlet;
#X obj 425 15 inlet;
#X obj 130 7 inlet;
#X msg 220 143 \$2 \$3 2;
#X msg 136 110 0 0 0;
#X obj 138 73 t b b b b;
#X connect 0 0 13 0;
#X connect 1 0 23 0;
#X connect 2 0 8 1;
#X connect 3 0 8 2;
#X connect 3 0 10 3;
#X connect 4 0 10 1;
#X connect 5 0 9 3;
#X connect 5 0 10 2;
#X connect 6 0 9 1;
#X connect 7 0 9 2;
#X connect 8 0 21 0;
#X connect 9 0 12 0;
#X connect 10 0 11 0;
#X connect 11 0 0 0;
#X connect 12 0 0 0;
#X connect 14 0 2 0;
#X connect 15 0 3 0;
#X connect 16 0 4 0;
#X connect 17 0 5 0;
#X connect 18 0 6 0;
#X connect 19 0 7 0;
#X connect 20 0 1 0;
#X connect 21 0 0 0;
#X connect 22 0 0 0;
#X connect 23 0 9 0;
#X connect 23 1 10 0;
#X connect 23 2 8 0;
#X connect 23 3 22 0;
