#N canvas 171 42 1106 736 10;
#X obj 4 655 osc~;
#X obj 4 944 dac~;
#X msg 335 157 \; pd dsp 1 \;;
#X msg 335 123 \; pd dsp 0 \;;
#X obj 43 655 osc~;
#X obj 87 656 osc~;
#X obj 131 656 osc~;
#X obj 175 656 osc~;
#X obj 218 656 osc~;
#X obj 261 656 osc~;
#X obj 304 656 osc~;
#X floatatom 152 330 5 0 0 0 - - -;
#X obj 3 495 * 1;
#X floatatom 3 516 5 0 0 0 - - -;
#X floatatom 42 516 5 0 0 0 - - -;
#X floatatom 86 516 6 0 0 0 - - -;
#X floatatom 131 517 5 0 0 0 - - -;
#X floatatom 174 517 5 0 0 0 - - -;
#X floatatom 218 517 5 0 0 0 - - -;
#X floatatom 261 517 5 0 0 0 - - -;
#X floatatom 304 517 5 0 0 0 - - -;
#X obj 63 153 hradio 15 1 1 13 empty empty KEYBORD 0 -8 0 10 -228856
-1 -1 9;
#X msg 8 422 261.6;
#X msg 27 402 277.18;
#X msg 7 382 293.67;
#X msg 27 363 311.13;
#X msg 8 345 329.63;
#X msg 8 326 349.23;
#X msg 26 307 369.99;
#X msg 8 289 392;
#X msg 24 270 415.3;
#X msg 7 251 440;
#X msg 23 232 466.16;
#X msg 6 214 493.88;
#X msg 5 195 523.25;
#N canvas 0 22 450 278 (subpatch) 0;
#X array phase 24 float 3;
#A 0 0 0 0 0 0 0 0 0 0 0 0 0 0 0 0 0 0 0 0 0 0 0 0 0;
#X coords 0 0 24 0.5 200 140 1 0 0;
#X restore 839 65 graph;
#X obj 81 894 tgl 15 0 empty empty empty 17 7 0 10 -262144 -1 -1 1
1;
#N canvas 0 22 450 278 (subpatch) 0;
#X array scope2 200 float 5;
#A 0 -0.00846761 -0.00643732 -0.0091186 -0.00851212 -0.00744766 -0.00770736
-0.00621215 -0.00906517 -0.00761189 -0.00601955 -0.00770287 -0.00691978
-0.00827245 -0.00846276 -0.00975994 -0.0124997 -0.01192 -0.0127409
-0.013933 -0.0134668 -0.0125683 -0.0139128 -0.0155241 -0.0149034 -0.0143117
-0.0132967 -0.011834 -0.0149613 -0.015897 -0.00735288 -0.00619496 -0.00173665
0.00724827 0.0204147 0.0510578 0.039116 -0.00707318 -0.0227618 -0.0216074
-0.01671 -0.0134678 -0.01454 -0.0113084 -0.0055389 -0.00269353 -0.00251612
-0.00325432 -0.00297151 -0.00107337 -0.000321335 0.00148698 -0.000266832
0.000249604 0.00274349 0.000150225 0.0020005 0.00159064 -3.16937e-05
-0.000329105 -0.00301187 -0.000838474 -0.00188549 -0.00438645 -0.00345044
-0.00468593 -0.00387559 -0.00390936 -0.00305097 0.000425233 0.00110148
0.00278632 0.00553754 0.00699839 0.00735033 0.00976147 0.0135522 0.015631
0.0175573 0.0189629 0.0189811 0.0241939 0.0305571 0.0263721 0.0279143
0.0280781 0.0234734 0.0139185 -0.0274027 -0.0415697 -0.00731161 0.0147008
0.0215929 0.0214665 0.0197246 0.0222617 0.0213761 0.0160116 0.0112967
0.00871897 0.00765431 0.00630937 0.00302044 0.000465683 -0.00383888
-0.00449585 -0.00624798 -0.0111982 -0.0108317 -0.0142818 -0.0164149
-0.0166361 -0.0179552 -0.0157985 -0.0182385 -0.0184609 -0.0157826 -0.0159917
-0.0138118 -0.013041 -0.0112057 -0.00931345 -0.0105331 -0.0093501 -0.00849967
-0.00904517 -0.00874506 -0.00665102 -0.00591463 -0.00732116 -0.00776025
-0.00819116 -0.00834211 -0.00611226 -0.00894503 -0.0168635 -0.0149715
-0.0177623 -0.022067 -0.0238712 -0.0250203 0.0159692 0.0526056 0.038027
0.018689 0.00780169 0.00344102 0.00255661 -0.00286716 -0.00691941 -0.00605378
-0.00394722 -0.00300178 -0.00378018 -0.00516457 -0.00465665 -0.00467399
-0.00211701 -0.00275394 -0.00346641 0.000222931 -0.00104266 0.00106547
0.00322867 0.00354591 0.00541641 0.00325336 0.00548858 0.00718212 0.00542601
0.00635806 0.00511489 0.00501863 0.00399335 0.00202228 0.00350253 0.00328746
0.00291491 0.00420429 0.00539046 0.00442509 0.00380748 0.00557708 0.00699874
0.0085546 0.010151 0.00808999 0.00944879 0.0189924 0.0201447 0.0246376
0.0330824 0.0421475 0.0596601 0.0322657 -0.0160846 -0.0223992 -0.0133704
-0.00539357 -0.00142505 -0.0020011;
#X coords 0 1 199 -1 200 140 1;
#X restore 839 238 graph;
#X obj 81 947 tabwrite~ scope2;
#X obj 81 922 metro 200;
#X msg 10 570 0;
#X obj 63 194 select 0 1 2 3 4 5 6 7 8 9 10 11 12;
#X floatatom 63 174 5 0 0 0 - - -;
#X obj 349 656 osc~;
#X obj 392 656 osc~;
#X obj 436 657 osc~;
#X obj 480 657 osc~;
#X obj 524 657 osc~;
#X obj 567 657 osc~;
#X obj 610 657 osc~;
#X obj 653 657 osc~;
#X floatatom 348 517 5 0 0 0 - - -;
#X floatatom 391 517 5 0 0 0 - - -;
#X floatatom 435 517 6 0 0 0 - - -;
#X floatatom 480 517 5 0 0 0 - - -;
#X floatatom 523 517 6 0 0 0 - - -;
#X floatatom 567 517 5 0 0 0 - - -;
#X floatatom 610 517 5 0 0 0 - - -;
#X floatatom 653 517 5 0 0 0 - - -;
#X obj 695 657 osc~;
#X obj 737 656 osc~;
#X obj 779 657 osc~;
#X obj 821 656 osc~;
#X obj 863 657 osc~;
#X obj 906 657 osc~;
#X obj 949 657 osc~;
#X obj 992 655 osc~;
#X floatatom 694 518 5 0 0 0 - - -;
#X floatatom 736 517 5 0 0 0 - - -;
#X floatatom 778 517 5 0 0 0 - - -;
#X floatatom 819 515 5 0 0 0 - - -;
#X floatatom 862 516 5 0 0 0 - - -;
#X floatatom 906 515 5 0 0 0 - - -;
#X floatatom 949 515 5 0 0 0 - - -;
#X floatatom 992 515 5 0 0 0 - - -;
#X obj 1059 520 bng 15 250 50 0 empty empty empty 17 7 0 10 -262144
-1 -1;
#X obj 10 593 tabread phase;
#X obj 52 614 tabread phase;
#X obj 94 635 tabread phase;
#X obj 138 593 tabread phase;
#X obj 182 614 tabread phase;
#X obj 224 635 tabread phase;
#X obj 268 593 tabread phase;
#X obj 312 614 tabread phase;
#X obj 354 635 tabread phase;
#X obj 399 593 tabread phase;
#X obj 443 614 tabread phase;
#X obj 485 635 tabread phase;
#X obj 531 593 tabread phase;
#X obj 575 614 tabread phase;
#X obj 617 635 tabread phase;
#X obj 661 593 tabread phase;
#X obj 702 614 tabread phase;
#X obj 744 635 tabread phase;
#X obj 789 593 tabread phase;
#X obj 829 614 tabread phase;
#X obj 871 635 tabread phase;
#X obj 915 593 tabread phase;
#X obj 957 614 tabread phase;
#X obj 1002 635 tabread phase;
#X msg 50 570 1;
#X msg 94 570 2;
#X msg 139 570 3;
#X msg 182 570 4;
#X msg 226 570 5;
#X msg 268 570 6;
#X msg 312 570 7;
#X msg 357 570 8;
#X msg 400 570 9;
#X msg 446 570 10;
#X msg 488 570 11;
#X msg 532 570 12;
#X msg 577 570 13;
#X msg 620 570 14;
#X msg 661 570 15;
#X msg 703 570 16;
#X msg 746 570 17;
#X msg 789 570 18;
#X msg 829 570 19;
#X msg 871 570 20;
#X msg 915 570 21;
#X msg 957 570 22;
#X msg 1003 570 23;
#X obj 1059 471 tgl 15 0 empty empty empty 17 7 0 10 -262144 -1 -1
0 1;
#X obj 1050 221 tabwrite~ phase;
#X obj 1050 181 *~ 0.25;
#X obj 1050 200 +~ 0.25;
#X obj 820 208 bng 15 250 50 0 empty empty empty 17 7 0 10 -262144
-1 -1;
#X obj 8 7 dac~;
#X obj 1050 159 osc~ 2000;
#N canvas 0 22 450 278 (subpatch) 0;
#X array harmonics 23 float 3;
#A 0 1.9 4.5 6.4 8.3 10.2 12.1 14 15.9 17.8 19.7 21.6 23.5 25.4 27.3
29.2 31.1 33 34.9 36.8 38.7 40.6 42.5 44.4;
#X coords 0 2 23 100 400 140 1 0 0;
#X restore 407 66 graph;
#X floatatom 57 471 5 0 0 0 - - -;
#X obj 57 448 tabread harmonics;
#X msg 57 426 0;
#X floatatom 101 471 5 0 0 0 - - -;
#X obj 101 448 tabread harmonics;
#X floatatom 144 471 5 0 0 0 - - -;
#X obj 144 448 tabread harmonics;
#X floatatom 189 471 5 0 0 0 - - -;
#X obj 189 448 tabread harmonics;
#X floatatom 238 471 5 0 0 0 - - -;
#X obj 238 448 tabread harmonics;
#X floatatom 282 471 5 0 0 0 - - -;
#X obj 282 448 tabread harmonics;
#X floatatom 325 471 5 0 0 0 - - -;
#X obj 325 448 tabread harmonics;
#X floatatom 370 471 5 0 0 0 - - -;
#X obj 370 448 tabread harmonics;
#X floatatom 412 471 5 0 0 0 - - -;
#X obj 412 448 tabread harmonics;
#X floatatom 456 471 5 0 0 0 - - -;
#X obj 456 448 tabread harmonics;
#X floatatom 499 471 5 0 0 0 - - -;
#X obj 493 448 tabread harmonics;
#X floatatom 544 471 5 0 0 0 - - -;
#X obj 538 448 tabread harmonics;
#X floatatom 587 471 5 0 0 0 - - -;
#X obj 587 448 tabread harmonics;
#X floatatom 631 471 5 0 0 0 - - -;
#X obj 631 448 tabread harmonics;
#X floatatom 674 471 5 0 0 0 - - -;
#X obj 674 448 tabread harmonics;
#X floatatom 715 471 5 0 0 0 - - -;
#X obj 715 448 tabread harmonics;
#X obj 67 7 s;
#X obj 41 7 r;
#X floatatom 756 471 5 0 0 0 - - -;
#X obj 756 448 tabread harmonics;
#X floatatom 799 471 5 0 0 0 - - -;
#X obj 793 448 tabread harmonics;
#X floatatom 841 471 5 0 0 0 - - -;
#X obj 835 448 tabread harmonics;
#X floatatom 884 471 5 0 0 0 - - -;
#X obj 884 448 tabread harmonics;
#X floatatom 928 471 5 0 0 0 - - -;
#X obj 928 448 tabread harmonics;
#X floatatom 971 471 5 0 0 0 - - -;
#X obj 971 448 tabread harmonics;
#X floatatom 1013 471 5 0 0 0 - - -;
#X obj 1012 448 tabread harmonics;
#X obj 603 342 bng 15 250 50 0 empty empty empty 17 7 0 10 -262144
-1 -1;
#X msg 101 426 1;
#X msg 144 426 2;
#X msg 189 426 3;
#X msg 238 426 4;
#X msg 282 426 5;
#X msg 325 426 6;
#X msg 370 426 7;
#X msg 412 426 8;
#X msg 456 426 9;
#X msg 499 425 10;
#X msg 544 425 11;
#X msg 587 426 12;
#X msg 631 426 13;
#X msg 674 426 14;
#X msg 715 426 15;
#X msg 756 426 16;
#X msg 799 426 17;
#X msg 841 426 18;
#X msg 884 426 19;
#X msg 928 426 20;
#X msg 971 426 21;
#X msg 1013 426 22;
#X obj 42 495 *;
#X obj 86 495 *;
#X obj 129 494 *;
#X obj 174 494 *;
#X obj 218 495 *;
#X obj 261 496 *;
#X obj 304 496 *;
#X obj 348 496 *;
#X obj 391 496 *;
#X obj 435 496 *;
#X obj 480 496 *;
#X obj 523 496 *;
#X obj 567 496 *;
#X obj 610 496 *;
#X obj 653 496 *;
#X obj 694 497 *;
#X obj 736 496 *;
#X obj 778 496 *;
#X obj 819 494 *;
#X obj 862 495 *;
#X obj 906 494 *;
#X obj 949 494 *;
#X obj 992 494 *;
#X obj 603 299 bng 15 250 50 0 empty empty empty 17 7 0 10 -262144
-1 -1;
#X obj 710 311 tabwrite~ harmonics;
#X obj 710 270 +~ 1;
#X obj 710 291 *~ 50;
#X obj 1059 492 metro 10;
#X obj 603 320 delay 100;
#X obj 281 78 vradio 15 1 0 6 empty empty empty 0 -8 0 10 -203904 -1
-1 3;
#X msg 387 300 10;
#X msg 387 279 20;
#X msg 387 258 1000;
#X msg 386 239 1500;
#X msg 386 219 2000;
#X obj 281 194 select 0 1 2 3 4 5;
#X obj 387 358 delay 100;
#X obj 1048 136 tabwrite phase;
#X floatatom 281 173 5 0 0 0 - - -;
#X obj 4 916 lop~;
#X obj 128 124 hsl 128 15 0 127 0 0 empty empty empty -2 -8 0 10 -262144
-1 -1 12700 1;
#X obj 25 894 mtof;
#X msg 387 320 2;
#X obj 710 249 osc~ 60;
#X obj 1147 309 metro 40;
#X obj 1147 331 f;
#X obj 1177 331 + 1;
#X floatatom 1153 378 5 0 0 0 - - -;
#X obj 1048 356 f;
#X floatatom 1048 377 5 0 0 0 - - -;
#X obj 1048 398 tabwrite harmonics;
#X text 1047 255 Write to Harmonics;
#X obj 125 105 s filter;
#X obj 25 869 r filter;
#X msg 1147 270 1;
#X msg 1114 330 0;
#X obj 1108 310 bng 15 250 50 0 empty empty empty 17 7 0 10 -262144
-1 -1;
#X obj 1162 228 clip 0 23;
#X msg 1048 331 0;
#X obj 1135 74 metro 40;
#X obj 1123 96 f;
#X obj 1150 96 + 1;
#X floatatom 1147 136 5 0 0 0 - - -;
#X obj 1048 97 f;
#X floatatom 1048 118 5 0 0 0 - - -;
#X msg 1135 40 1;
#X msg 1106 74 0;
#X obj 1077 96 bng 15 250 50 0 empty empty empty 17 7 0 10 -262144
-1 -1;
#X msg 1048 74 0;
#X obj 1120 117 select 24;
#X msg 1076 74 0;
#X msg 1084 331 -1;
#X obj 1147 352 select 23;
#X text 952 31 Write to phase btw 0-0.5;
#X text 504 277 Make a osc write harmonics -------------->;
#X text 503 341 reset osc ---->;
#X text 648 208 makes osc write phase ---->;
#X obj 1006 682 vsl 15 32 0.01 0.8 0 0 empty empty empty 0 -9 0 10
-261234 -1 -1 0 1;
#X floatatom 998 721 5 0 0 0 - - -;
#X obj 992 741 *~;
#X obj 964 682 vsl 15 32 0.01 0.8 0 0 empty empty empty 0 -9 0 10 -261234
-1 -1 100 1;
#X floatatom 956 721 5 0 0 0 - - -;
#X obj 949 741 *~;
#X obj 921 682 vsl 15 32 0.01 0.8 0 0 empty empty empty 0 -9 0 10 -261234
-1 -1 0 1;
#X floatatom 913 721 5 0 0 0 - - -;
#X obj 906 741 *~;
#X obj 878 682 vsl 15 32 0.01 0.8 0 0 empty empty empty 0 -9 0 10 -261234
-1 -1 300 1;
#X floatatom 870 721 5 0 0 0 - - -;
#X obj 836 682 vsl 15 32 0.01 0.8 0 0 empty empty empty 0 -9 0 10 -261234
-1 -1 200 1;
#X floatatom 828 721 5 0 0 0 - - -;
#X obj 793 682 vsl 15 32 0.01 0.8 0 0 empty empty empty 0 -9 0 10 -261234
-1 -1 300 1;
#X floatatom 785 721 5 0 0 0 - - -;
#X obj 863 741 *~;
#X obj 821 741 *~;
#X obj 779 741 *~;
#X obj 753 682 vsl 15 32 0.01 0.8 0 0 empty empty empty 0 -9 0 10 -261234
-1 -1 300 1;
#X floatatom 745 721 5 0 0 0 - - -;
#X obj 711 682 vsl 15 32 0.01 0.8 0 0 empty empty empty 0 -9 0 10 -261234
-1 -1 200 1;
#X floatatom 703 721 5 0 0 0 - - -;
#X obj 668 682 vsl 15 32 0.01 0.8 0 0 empty empty empty 0 -9 0 10 -261234
-1 -1 200 1;
#X floatatom 660 721 5 0 0 0 - - -;
#X obj 625 682 vsl 15 32 0.01 0.8 0 0 empty empty empty 0 -9 0 10 -261234
-1 -1 400 1;
#X floatatom 617 721 5 0 0 0 - - -;
#X obj 583 682 vsl 15 32 0.01 0.8 0 0 empty empty empty 0 -9 0 10 -261234
-1 -1 400 1;
#X floatatom 575 721 5 0 0 0 - - -;
#X obj 540 682 vsl 15 32 0.01 0.8 0 0 empty empty empty 0 -9 0 10 -261234
-1 -1 700 1;
#X floatatom 532 721 5 0 0 0 - - -;
#X obj 737 741 *~;
#X obj 695 741 *~;
#X obj 653 741 *~;
#X obj 610 741 *~;
#X obj 567 741 *~;
#X obj 524 741 *~;
#X obj 496 682 vsl 15 32 0.01 0.8 0 0 empty empty empty 0 -9 0 10 -261234
-1 -1 900 1;
#X floatatom 488 721 5 0 0 0 - - -;
#X obj 454 682 vsl 15 32 0.01 0.8 0 0 empty empty empty 0 -9 0 10 -261234
-1 -1 1000 1;
#X floatatom 446 721 5 0 0 0 - - -;
#X obj 411 682 vsl 15 32 0.01 0.8 0 0 empty empty empty 0 -9 0 10 -261234
-1 -1 900 1;
#X floatatom 403 721 5 0 0 0 - - -;
#X obj 365 682 vsl 15 32 0.01 0.8 0 0 empty empty empty 0 -9 0 10 -261234
-1 -1 900 1;
#X floatatom 357 721 5 0 0 0 - - -;
#X obj 323 682 vsl 15 32 0.01 0.8 0 0 empty empty empty 0 -9 0 10 -261234
-1 -1 1200 1;
#X floatatom 315 721 5 0 0 0 - - -;
#X obj 277 682 vsl 15 32 0.01 0.8 0 0 empty empty empty 0 -9 0 10 -261234
-1 -1 1400 1;
#X floatatom 269 721 5 0 0 0 - - -;
#X obj 235 682 vsl 15 32 0.01 0.8 0 0 empty empty empty 0 -9 0 10 -261234
-1 -1 1700 1;
#X floatatom 227 721 5 0 0 0 - - -;
#X obj 191 682 vsl 15 32 0.01 0.8 0 0 empty empty empty 0 -9 0 10 -261234
-1 -1 2000 1;
#X floatatom 183 721 5 0 0 0 - - -;
#X obj 148 682 vsl 15 32 0.01 0.8 0 0 empty empty empty 0 -9 0 10 -261234
-1 -1 1900 1;
#X floatatom 140 721 5 0 0 0 - - -;
#X obj 103 682 vsl 15 32 0.01 0.8 0 0 empty empty empty 0 -9 0 10 -261234
-1 -1 2400 1;
#X floatatom 95 721 5 0 0 0 - - -;
#X obj 59 682 vsl 15 32 0.01 0.8 0 0 empty empty empty 0 -9 0 10 -261234
-1 -1 2200 1;
#X floatatom 51 721 5 0 0 0 - - -;
#X obj 18 682 vsl 15 32 0.01 0.8 0 0 empty empty empty 0 -9 0 10 -261234
-1 -1 3100 1;
#X floatatom 10 721 5 0 0 0 - - -;
#X obj 480 742 *~;
#X obj 436 741 *~;
#X obj 392 740 *~;
#X obj 349 740 *~;
#X obj 304 740 *~;
#X obj 261 740 *~;
#X obj 218 740 *~;
#X obj 175 740 *~;
#X obj 131 741 *~;
#X obj 87 740 *~;
#X obj 43 739 *~;
#X obj 4 739 *~;
#X obj 1007 777 vsl 30 100 0.001 0.1 0 0 empty empty Vol 0 -9 0 16
-261234 -1 -1 1200 1;
#X floatatom 1007 886 5 0 0 0 - - -;
#X obj 992 907 *~;
#X msg 993 931 \; pd dsp 0 \;;
#X text 934 940 MUTE--->;
#X obj 1054 282 + 1.9, f 8;
#X obj 1048 48 + 0, f 8;
#X text 1078 470 <---GLITCH;
#X text 1079 519 <--phase reset;
#X text 1119 30 GO;
#X text 1130 258 GO;
#X connect 0 0 351 0;
#X connect 4 0 350 0;
#X connect 5 0 349 0;
#X connect 6 0 348 0;
#X connect 7 0 347 0;
#X connect 8 0 346 0;
#X connect 9 0 345 0;
#X connect 10 0 344 0;
#X connect 11 0 12 0;
#X connect 11 0 203 0;
#X connect 11 0 204 0;
#X connect 11 0 205 0;
#X connect 11 0 206 0;
#X connect 11 0 207 0;
#X connect 11 0 208 0;
#X connect 11 0 209 0;
#X connect 11 0 210 0;
#X connect 11 0 211 0;
#X connect 11 0 212 0;
#X connect 11 0 213 0;
#X connect 11 0 214 0;
#X connect 11 0 215 0;
#X connect 11 0 216 0;
#X connect 11 0 217 0;
#X connect 11 0 218 0;
#X connect 11 0 219 0;
#X connect 11 0 220 0;
#X connect 11 0 221 0;
#X connect 11 0 222 0;
#X connect 11 0 223 0;
#X connect 11 0 224 0;
#X connect 11 0 225 0;
#X connect 12 0 13 0;
#X connect 13 0 0 0;
#X connect 14 0 4 0;
#X connect 15 0 5 0;
#X connect 16 0 6 0;
#X connect 17 0 7 0;
#X connect 18 0 8 0;
#X connect 19 0 9 0;
#X connect 20 0 10 0;
#X connect 21 0 42 0;
#X connect 22 0 11 0;
#X connect 23 0 11 0;
#X connect 24 0 11 0;
#X connect 25 0 11 0;
#X connect 26 0 11 0;
#X connect 27 0 11 0;
#X connect 28 0 11 0;
#X connect 29 0 11 0;
#X connect 30 0 11 0;
#X connect 31 0 11 0;
#X connect 32 0 11 0;
#X connect 33 0 11 0;
#X connect 34 0 11 0;
#X connect 36 0 39 0;
#X connect 39 0 38 0;
#X connect 40 0 76 0;
#X connect 41 0 22 0;
#X connect 41 1 23 0;
#X connect 41 2 24 0;
#X connect 41 3 25 0;
#X connect 41 4 26 0;
#X connect 41 5 27 0;
#X connect 41 6 28 0;
#X connect 41 7 29 0;
#X connect 41 8 30 0;
#X connect 41 9 31 0;
#X connect 41 10 32 0;
#X connect 41 11 33 0;
#X connect 41 12 34 0;
#X connect 42 0 41 0;
#X connect 43 0 343 0;
#X connect 44 0 342 0;
#X connect 45 0 341 0;
#X connect 46 0 340 0;
#X connect 47 0 315 0;
#X connect 48 0 314 0;
#X connect 49 0 313 0;
#X connect 50 0 312 0;
#X connect 51 0 43 0;
#X connect 52 0 44 0;
#X connect 53 0 45 0;
#X connect 54 0 46 0;
#X connect 55 0 47 0;
#X connect 56 0 48 0;
#X connect 57 0 49 0;
#X connect 58 0 50 0;
#X connect 59 0 311 0;
#X connect 60 0 310 0;
#X connect 61 0 297 0;
#X connect 62 0 296 0;
#X connect 63 0 295 0;
#X connect 64 0 288 0;
#X connect 65 0 285 0;
#X connect 66 0 282 0;
#X connect 67 0 59 0;
#X connect 68 0 60 0;
#X connect 69 0 61 0;
#X connect 70 0 62 0;
#X connect 71 0 63 0;
#X connect 72 0 64 0;
#X connect 73 0 65 0;
#X connect 74 0 66 0;
#X connect 75 0 100 0;
#X connect 75 0 101 0;
#X connect 75 0 102 0;
#X connect 75 0 103 0;
#X connect 75 0 104 0;
#X connect 75 0 105 0;
#X connect 75 0 106 0;
#X connect 75 0 107 0;
#X connect 75 0 108 0;
#X connect 75 0 109 0;
#X connect 75 0 110 0;
#X connect 75 0 111 0;
#X connect 75 0 112 0;
#X connect 75 0 113 0;
#X connect 75 0 114 0;
#X connect 75 0 115 0;
#X connect 75 0 116 0;
#X connect 75 0 117 0;
#X connect 75 0 118 0;
#X connect 75 0 119 0;
#X connect 75 0 120 0;
#X connect 75 0 121 0;
#X connect 75 0 122 0;
#X connect 75 0 40 0;
#X connect 76 0 0 1;
#X connect 77 0 4 1;
#X connect 78 0 5 1;
#X connect 79 0 6 1;
#X connect 80 0 7 1;
#X connect 81 0 8 1;
#X connect 82 0 9 1;
#X connect 83 0 10 1;
#X connect 84 0 43 1;
#X connect 85 0 44 1;
#X connect 86 0 45 1;
#X connect 87 0 46 1;
#X connect 88 0 47 1;
#X connect 89 0 48 1;
#X connect 90 0 49 1;
#X connect 91 0 50 1;
#X connect 92 0 59 1;
#X connect 93 0 60 1;
#X connect 94 0 61 1;
#X connect 95 0 62 1;
#X connect 96 0 63 1;
#X connect 97 0 64 1;
#X connect 98 0 65 1;
#X connect 99 0 66 1;
#X connect 100 0 77 0;
#X connect 101 0 78 0;
#X connect 102 0 79 0;
#X connect 103 0 80 0;
#X connect 104 0 81 0;
#X connect 105 0 82 0;
#X connect 106 0 83 0;
#X connect 107 0 84 0;
#X connect 108 0 85 0;
#X connect 109 0 86 0;
#X connect 110 0 87 0;
#X connect 111 0 88 0;
#X connect 112 0 89 0;
#X connect 113 0 90 0;
#X connect 114 0 91 0;
#X connect 115 0 92 0;
#X connect 116 0 93 0;
#X connect 117 0 94 0;
#X connect 118 0 95 0;
#X connect 119 0 96 0;
#X connect 120 0 97 0;
#X connect 121 0 98 0;
#X connect 122 0 99 0;
#X connect 123 0 230 0;
#X connect 125 0 126 0;
#X connect 126 0 124 0;
#X connect 127 0 124 0;
#X connect 129 0 125 0;
#X connect 131 0 203 1;
#X connect 132 0 131 0;
#X connect 133 0 132 0;
#X connect 134 0 204 1;
#X connect 135 0 134 0;
#X connect 136 0 205 1;
#X connect 137 0 136 0;
#X connect 138 0 206 1;
#X connect 139 0 138 0;
#X connect 140 0 207 1;
#X connect 141 0 140 0;
#X connect 142 0 208 1;
#X connect 143 0 142 0;
#X connect 144 0 209 1;
#X connect 145 0 144 0;
#X connect 146 0 210 1;
#X connect 147 0 146 0;
#X connect 148 0 211 1;
#X connect 149 0 148 0;
#X connect 150 0 212 1;
#X connect 151 0 150 0;
#X connect 152 0 213 1;
#X connect 153 0 152 0;
#X connect 154 0 214 1;
#X connect 155 0 154 0;
#X connect 156 0 215 1;
#X connect 157 0 156 0;
#X connect 158 0 216 1;
#X connect 159 0 158 0;
#X connect 160 0 217 1;
#X connect 161 0 160 0;
#X connect 162 0 218 1;
#X connect 163 0 162 0;
#X connect 166 0 219 1;
#X connect 167 0 166 0;
#X connect 168 0 220 1;
#X connect 169 0 168 0;
#X connect 170 0 221 1;
#X connect 171 0 170 0;
#X connect 172 0 222 1;
#X connect 173 0 172 0;
#X connect 174 0 223 1;
#X connect 175 0 174 0;
#X connect 176 0 224 1;
#X connect 177 0 176 0;
#X connect 178 0 225 1;
#X connect 179 0 178 0;
#X connect 180 0 133 0;
#X connect 180 0 181 0;
#X connect 180 0 182 0;
#X connect 180 0 183 0;
#X connect 180 0 184 0;
#X connect 180 0 185 0;
#X connect 180 0 186 0;
#X connect 180 0 187 0;
#X connect 180 0 188 0;
#X connect 180 0 189 0;
#X connect 180 0 190 0;
#X connect 180 0 191 0;
#X connect 180 0 192 0;
#X connect 180 0 193 0;
#X connect 180 0 194 0;
#X connect 180 0 195 0;
#X connect 180 0 196 0;
#X connect 180 0 197 0;
#X connect 180 0 198 0;
#X connect 180 0 199 0;
#X connect 180 0 200 0;
#X connect 180 0 201 0;
#X connect 180 0 202 0;
#X connect 180 0 239 0;
#X connect 181 0 135 0;
#X connect 182 0 137 0;
#X connect 183 0 139 0;
#X connect 184 0 141 0;
#X connect 185 0 143 0;
#X connect 186 0 145 0;
#X connect 187 0 147 0;
#X connect 188 0 149 0;
#X connect 189 0 151 0;
#X connect 190 0 153 0;
#X connect 191 0 155 0;
#X connect 192 0 157 0;
#X connect 193 0 159 0;
#X connect 194 0 161 0;
#X connect 195 0 163 0;
#X connect 196 0 167 0;
#X connect 197 0 169 0;
#X connect 198 0 171 0;
#X connect 199 0 173 0;
#X connect 200 0 175 0;
#X connect 201 0 177 0;
#X connect 202 0 179 0;
#X connect 203 0 14 0;
#X connect 204 0 15 0;
#X connect 205 0 16 0;
#X connect 206 0 17 0;
#X connect 207 0 18 0;
#X connect 208 0 19 0;
#X connect 209 0 20 0;
#X connect 210 0 51 0;
#X connect 211 0 52 0;
#X connect 212 0 53 0;
#X connect 213 0 54 0;
#X connect 214 0 55 0;
#X connect 215 0 56 0;
#X connect 216 0 57 0;
#X connect 217 0 58 0;
#X connect 218 0 67 0;
#X connect 219 0 68 0;
#X connect 220 0 69 0;
#X connect 221 0 70 0;
#X connect 222 0 71 0;
#X connect 223 0 72 0;
#X connect 224 0 73 0;
#X connect 225 0 74 0;
#X connect 226 0 227 0;
#X connect 226 0 231 0;
#X connect 228 0 229 0;
#X connect 229 0 227 0;
#X connect 230 0 226 0;
#X connect 230 0 180 0;
#X connect 230 0 11 0;
#X connect 230 0 75 0;
#X connect 231 0 180 0;
#X connect 232 0 241 0;
#X connect 233 0 11 0;
#X connect 234 0 11 0;
#X connect 235 0 11 0;
#X connect 236 0 11 0;
#X connect 237 0 11 0;
#X connect 238 0 237 0;
#X connect 238 1 236 0;
#X connect 238 2 235 0;
#X connect 238 3 234 0;
#X connect 238 4 233 0;
#X connect 238 5 245 0;
#X connect 239 0 11 0;
#X connect 241 0 238 0;
#X connect 242 0 1 0;
#X connect 242 0 1 1;
#X connect 242 0 38 0;
#X connect 243 0 255 0;
#X connect 244 0 242 1;
#X connect 245 0 11 0;
#X connect 246 0 228 0;
#X connect 247 0 248 0;
#X connect 247 0 251 0;
#X connect 248 0 249 0;
#X connect 248 0 275 0;
#X connect 249 0 248 1;
#X connect 250 0 253 1;
#X connect 251 0 252 0;
#X connect 251 0 357 0;
#X connect 252 0 253 0;
#X connect 256 0 244 0;
#X connect 257 0 247 0;
#X connect 258 0 247 0;
#X connect 259 0 258 0;
#X connect 259 0 274 0;
#X connect 259 0 261 0;
#X connect 261 0 251 0;
#X connect 262 0 263 0;
#X connect 262 0 266 0;
#X connect 263 0 264 0;
#X connect 263 0 272 0;
#X connect 264 0 263 1;
#X connect 265 0 240 1;
#X connect 266 0 267 0;
#X connect 266 0 358 0;
#X connect 267 0 240 0;
#X connect 268 0 262 0;
#X connect 269 0 262 0;
#X connect 270 0 269 0;
#X connect 270 0 273 0;
#X connect 270 0 271 0;
#X connect 271 0 266 0;
#X connect 272 0 270 0;
#X connect 272 1 265 0;
#X connect 273 0 263 0;
#X connect 274 0 248 0;
#X connect 275 0 259 0;
#X connect 275 1 250 0;
#X connect 280 0 281 0;
#X connect 281 0 282 1;
#X connect 282 0 354 0;
#X connect 283 0 284 0;
#X connect 284 0 285 1;
#X connect 285 0 354 0;
#X connect 286 0 287 0;
#X connect 286 0 288 1;
#X connect 287 0 288 1;
#X connect 288 0 354 0;
#X connect 289 0 290 0;
#X connect 290 0 295 1;
#X connect 291 0 292 0;
#X connect 292 0 296 1;
#X connect 293 0 294 0;
#X connect 294 0 297 1;
#X connect 295 0 354 0;
#X connect 296 0 354 0;
#X connect 297 0 354 0;
#X connect 298 0 299 0;
#X connect 299 0 310 1;
#X connect 300 0 301 0;
#X connect 301 0 311 1;
#X connect 302 0 303 0;
#X connect 303 0 312 1;
#X connect 304 0 305 0;
#X connect 305 0 313 1;
#X connect 306 0 307 0;
#X connect 307 0 314 1;
#X connect 308 0 309 0;
#X connect 309 0 315 1;
#X connect 310 0 354 0;
#X connect 311 0 354 0;
#X connect 312 0 354 0;
#X connect 313 0 354 0;
#X connect 314 0 354 0;
#X connect 315 0 354 0;
#X connect 316 0 317 0;
#X connect 317 0 340 1;
#X connect 318 0 319 0;
#X connect 319 0 341 1;
#X connect 320 0 321 0;
#X connect 321 0 342 1;
#X connect 322 0 323 0;
#X connect 323 0 343 1;
#X connect 324 0 325 0;
#X connect 325 0 344 1;
#X connect 326 0 327 0;
#X connect 327 0 345 1;
#X connect 328 0 329 0;
#X connect 329 0 346 1;
#X connect 330 0 331 0;
#X connect 331 0 347 1;
#X connect 332 0 333 0;
#X connect 333 0 348 1;
#X connect 334 0 335 0;
#X connect 335 0 349 1;
#X connect 336 0 337 0;
#X connect 337 0 350 1;
#X connect 338 0 339 0;
#X connect 339 0 351 1;
#X connect 340 0 354 0;
#X connect 341 0 354 0;
#X connect 342 0 354 0;
#X connect 343 0 354 0;
#X connect 344 0 354 0;
#X connect 345 0 354 0;
#X connect 346 0 354 0;
#X connect 347 0 354 0;
#X connect 348 0 354 0;
#X connect 349 0 354 0;
#X connect 350 0 354 0;
#X connect 351 0 354 0;
#X connect 352 0 353 0;
#X connect 353 0 354 1;
#X connect 354 0 242 0;
#X connect 357 0 251 1;
#X connect 358 0 266 1;
